<svg width="17" height="19" viewBox="0 0 17 19" fill="none" xmlns="http://www.w3.org/2000/svg">
<path opacity="0.3" d="M8.5249 2.34375C9.00098 2.34375 9.35986 1.97754 9.35986 1.50146C9.35986 1.04004 8.98633 0.666504 8.5249 0.666504C8.06348 0.666504 7.68262 1.04736 7.68262 1.50146C7.68262 1.97021 8.05615 2.34375 8.5249 2.34375ZM4.9873 4.37988C5.46338 4.37988 5.82959 4.021 5.82959 3.54492C5.82959 3.07617 5.45605 2.70264 4.9873 2.70264C4.5332 2.70264 4.15234 3.0835 4.15234 3.54492C4.15234 4.00635 4.52588 4.37988 4.9873 4.37988ZM12.0552 4.37988C12.5312 4.37988 12.8901 4.021 12.8901 3.54492C12.8901 3.07617 12.5239 2.70264 12.0552 2.70264C11.6011 2.70264 11.2202 3.0835 11.2202 3.54492C11.2202 4.00635 11.5864 4.37988 12.0552 4.37988ZM8.5249 6.72363C9.14746 6.72363 9.63818 6.23291 9.63818 5.61035C9.63818 4.99512 9.14014 4.48975 8.5249 4.48975C7.91699 4.48975 7.4043 5.00244 7.4043 5.61035C7.4043 6.22559 7.90967 6.72363 8.5249 6.72363ZM1.45703 6.44531C1.93311 6.44531 2.29199 6.08643 2.29199 5.61035C2.29199 5.1416 1.91846 4.76807 1.45703 4.76807C1.00293 4.76807 0.62207 5.14893 0.62207 5.61035C0.62207 6.07178 0.988281 6.44531 1.45703 6.44531ZM15.5635 6.44531C16.0322 6.44531 16.3984 6.0791 16.3984 5.61035C16.3984 5.1416 16.0249 4.76807 15.5635 4.76807C15.1021 4.76807 14.7212 5.14893 14.7212 5.61035C14.7212 6.07178 15.0947 6.44531 15.5635 6.44531ZM4.9873 8.77441C5.61719 8.77441 6.10791 8.28369 6.10791 7.65381C6.10791 7.03857 5.60254 6.5332 4.9873 6.5332C4.38672 6.5332 3.87402 7.0459 3.87402 7.65381C3.87402 8.26904 4.37207 8.77441 4.9873 8.77441ZM12.0552 8.77441C12.6851 8.77441 13.1758 8.28369 13.1758 7.65381C13.1758 7.03857 12.6704 6.5332 12.0552 6.5332C11.4473 6.5332 10.9346 7.0459 10.9346 7.65381C10.9346 8.26904 11.4399 8.77441 12.0552 8.77441ZM8.5249 11.0156C9.25 11.0156 9.82861 10.437 9.82861 9.71191C9.82861 8.99414 9.24268 8.4082 8.5249 8.4082C7.81445 8.4082 7.22119 9.00146 7.22119 9.71191C7.22119 10.4297 7.80713 11.0156 8.5249 11.0156ZM1.45703 10.5469C1.92578 10.5469 2.29199 10.1807 2.29199 9.71191C2.29199 9.24316 1.91846 8.87695 1.45703 8.87695C1.00293 8.87695 0.62207 9.25049 0.62207 9.71191C0.62207 10.1733 0.988281 10.5469 1.45703 10.5469ZM15.5635 10.5469C16.0322 10.5469 16.3984 10.188 16.3984 9.71191C16.3984 9.24316 16.0249 8.87695 15.5635 8.87695C15.1021 8.87695 14.7212 9.25781 14.7212 9.71191C14.7212 10.1807 15.0947 10.5469 15.5635 10.5469ZM4.9873 12.8833C5.61719 12.8833 6.10791 12.3926 6.10791 11.77C6.10791 11.1475 5.60254 10.6494 4.9873 10.6494C4.37939 10.6494 3.87402 11.1621 3.87402 11.77C3.87402 12.3853 4.37207 12.8833 4.9873 12.8833ZM12.0552 12.8833C12.6777 12.8833 13.1758 12.3926 13.1758 11.77C13.1758 11.1475 12.6704 10.6494 12.0552 10.6494C11.4473 10.6494 10.9346 11.1621 10.9346 11.77C10.9346 12.3853 11.4399 12.8833 12.0552 12.8833ZM8.5249 14.9341C9.14746 14.9341 9.63818 14.436 9.63818 13.8135C9.63818 13.1982 9.14014 12.7002 8.5249 12.7002C7.91699 12.7002 7.4043 13.2056 7.4043 13.8135C7.4043 14.4287 7.90967 14.9341 8.5249 14.9341ZM1.45703 14.6484C1.93311 14.6484 2.29199 14.2896 2.29199 13.8135C2.29199 13.3447 1.92578 12.9785 1.45703 12.9785C1.00293 12.9785 0.62207 13.3594 0.62207 13.8135C0.62207 14.2822 0.988281 14.6484 1.45703 14.6484ZM15.5635 14.6484C16.0396 14.6484 16.3984 14.2896 16.3984 13.8135C16.3984 13.3521 16.0249 12.9785 15.5635 12.9785C15.1021 12.9785 14.7212 13.3594 14.7212 13.8135C14.7212 14.2822 15.0947 14.6484 15.5635 14.6484ZM4.9873 16.7212C5.46338 16.7212 5.82959 16.355 5.82959 15.8789C5.82959 15.4102 5.45605 15.0439 4.9873 15.0439C4.5332 15.0439 4.15234 15.4248 4.15234 15.8789C4.15234 16.3477 4.52588 16.7212 4.9873 16.7212ZM12.0552 16.7212C12.5312 16.7212 12.8901 16.355 12.8901 15.8789C12.8901 15.4102 12.5239 15.0439 12.0552 15.0439C11.6011 15.0439 11.2202 15.4248 11.2202 15.8789C11.2202 16.3477 11.5864 16.7212 12.0552 16.7212ZM8.5249 18.7573C8.99365 18.7573 9.35986 18.3911 9.35986 17.915C9.35986 17.4536 8.98633 17.0801 8.5249 17.0801C8.06348 17.0801 7.68262 17.4609 7.68262 17.915C7.68262 18.3838 8.05615 18.7573 8.5249 18.7573Z" fill="white"/>
</svg>
