<svg width="115" height="114" viewBox="0 0 115 114" fill="none" xmlns="http://www.w3.org/2000/svg">
<path opacity="0.5" d="M56.9478 0.00561523L57.0581 6.30859" stroke="white" stroke-width="0.551925" stroke-miterlimit="10"/>
<path opacity="0.1" d="M53.9614 0.0883789L54.403 6.3748" stroke="white" stroke-width="0.551925" stroke-miterlimit="10"/>
<path opacity="0.1" d="M50.9863 0.320068L51.7535 6.57889" stroke="white" stroke-width="0.551925" stroke-miterlimit="10"/>
<path opacity="0.1" d="M48.0288 0.717529L49.1271 6.92116" stroke="white" stroke-width="0.551925" stroke-miterlimit="10"/>
<path opacity="0.1" d="M45.0972 1.26392L46.5156 7.40132" stroke="white" stroke-width="0.551925" stroke-miterlimit="10"/>
<path opacity="0.1" d="M42.1948 1.95947L43.9334 8.0196" stroke="white" stroke-width="0.551925" stroke-miterlimit="10"/>
<path opacity="0.1" d="M39.3354 2.80908L41.3886 8.76987" stroke="white" stroke-width="0.551925" stroke-miterlimit="10"/>
<path opacity="0.1" d="M36.5264 3.80811L38.8831 9.65299" stroke="white" stroke-width="0.551925" stroke-miterlimit="10"/>
<path opacity="0.1" d="M33.7671 4.9563L36.4329 10.6687" stroke="white" stroke-width="0.551925" stroke-miterlimit="10"/>
<path opacity="0.1" d="M31.0732 6.24219L34.0371 11.8056" stroke="white" stroke-width="0.551925" stroke-miterlimit="10"/>
<path opacity="0.2" d="M28.457 7.66626L31.7023 13.0696" stroke="white" stroke-width="0.551925" stroke-miterlimit="10"/>
<path opacity="0.1" d="M25.9131 9.22827L29.4344 14.455" stroke="white" stroke-width="0.551925" stroke-miterlimit="10"/>
<path opacity="0.1" d="M23.4565 10.9226L27.2483 15.9562" stroke="white" stroke-width="0.551925" stroke-miterlimit="10"/>
<path opacity="0.1" d="M21.0889 12.7439L25.14 17.5677" stroke="white" stroke-width="0.551925" stroke-miterlimit="10"/>
<path opacity="0.1" d="M18.8208 14.6812L23.1203 19.2897" stroke="white" stroke-width="0.551925" stroke-miterlimit="10"/>
<path opacity="0.1" d="M16.6572 16.7397L21.194 21.1165" stroke="white" stroke-width="0.551925" stroke-miterlimit="10"/>
<path opacity="0.1" d="M14.6094 18.9033L19.367 23.0372" stroke="white" stroke-width="0.551925" stroke-miterlimit="10"/>
<path opacity="0.1" d="M12.6719 21.1772L17.6392 25.0573" stroke="white" stroke-width="0.551925" stroke-miterlimit="10"/>
<path opacity="0.1" d="M10.8564 23.5452L16.0225 27.1603" stroke="white" stroke-width="0.551925" stroke-miterlimit="10"/>
<path opacity="0.1" d="M9.16748 26.0066L14.5156 29.3457" stroke="white" stroke-width="0.551925" stroke-miterlimit="10"/>
<path opacity="0.1" d="M7.61133 28.551L13.1251 31.6087" stroke="white" stroke-width="0.551925" stroke-miterlimit="10"/>
<path opacity="0.2" d="M6.19238 31.1726L11.8551 33.9378" stroke="white" stroke-width="0.551925" stroke-miterlimit="10"/>
<path opacity="0.1" d="M4.91211 33.866L10.7128 36.3331" stroke="white" stroke-width="0.551925" stroke-miterlimit="10"/>
<path opacity="0.1" d="M3.77002 36.6257L9.69217 38.7838" stroke="white" stroke-width="0.551925" stroke-miterlimit="10"/>
<path opacity="0.1" d="M2.77588 39.4404L8.80289 41.2839" stroke="white" stroke-width="0.551925" stroke-miterlimit="10"/>
<path opacity="0.1" d="M1.93213 42.2996L8.04745 43.8284" stroke="white" stroke-width="0.551925" stroke-miterlimit="10"/>
<path opacity="0.1" d="M1.23633 45.2026L7.4234 46.4058" stroke="white" stroke-width="0.551925" stroke-miterlimit="10"/>
<path opacity="0.1" d="M0.695312 48.1389L6.93758 49.0165" stroke="white" stroke-width="0.551925" stroke-miterlimit="10"/>
<path opacity="0.1" d="M0.309082 51.0972L6.58998 51.6491" stroke="white" stroke-width="0.551925" stroke-miterlimit="10"/>
<path opacity="0.1" d="M0.0825195 54.072L6.37998 54.2928" stroke="white" stroke-width="0.551925" stroke-miterlimit="10"/>
<path opacity="0.5" d="M0.00537109 57.0581L6.30835 56.9478" stroke="white" stroke-width="0.551925" stroke-miterlimit="10"/>
<path opacity="0.1" d="M0.0883789 60.0382L6.3748 59.5967" stroke="white" stroke-width="0.551925" stroke-miterlimit="10"/>
<path opacity="0.1" d="M0.320312 63.013L6.57914 62.2458" stroke="white" stroke-width="0.551925" stroke-miterlimit="10"/>
<path opacity="0.1" d="M0.717285 65.9715L6.92092 64.8787" stroke="white" stroke-width="0.551925" stroke-miterlimit="10"/>
<path opacity="0.1" d="M1.26416 68.9022L7.40156 67.4893" stroke="white" stroke-width="0.551925" stroke-miterlimit="10"/>
<path opacity="0.1" d="M1.95898 71.8055L8.01911 70.0669" stroke="white" stroke-width="0.551925" stroke-miterlimit="10"/>
<path opacity="0.1" d="M2.80908 74.6645L8.76987 72.6113" stroke="white" stroke-width="0.551925" stroke-miterlimit="10"/>
<path opacity="0.1" d="M3.80811 77.4789L9.65299 75.1167" stroke="white" stroke-width="0.551925" stroke-miterlimit="10"/>
<path opacity="0.1" d="M4.95654 80.2332L10.669 77.5674" stroke="white" stroke-width="0.551925" stroke-miterlimit="10"/>
<path opacity="0.2" d="M6.24268 82.9266L11.8061 79.9683" stroke="white" stroke-width="0.551925" stroke-miterlimit="10"/>
<path opacity="0.1" d="M7.6665 85.5482L13.0698 82.2974" stroke="white" stroke-width="0.551925" stroke-miterlimit="10"/>
<path opacity="0.1" d="M9.22852 88.087L14.4552 84.5657" stroke="white" stroke-width="0.551925" stroke-miterlimit="10"/>
<path opacity="0.1" d="M10.9224 90.5487L15.9559 86.7515" stroke="white" stroke-width="0.551925" stroke-miterlimit="10"/>
<path opacity="0.1" d="M12.7441 92.911L17.568 88.8599" stroke="white" stroke-width="0.551925" stroke-miterlimit="10"/>
<path opacity="0.1" d="M14.6816 95.1794L19.2902 90.8799" stroke="white" stroke-width="0.551925" stroke-miterlimit="10"/>
<path opacity="0.1" d="M16.7402 97.343L21.117 92.8062" stroke="white" stroke-width="0.551925" stroke-miterlimit="10"/>
<path opacity="0.1" d="M18.9033 99.396L23.0372 94.6384" stroke="white" stroke-width="0.551925" stroke-miterlimit="10"/>
<path opacity="0.1" d="M21.1772 101.328L25.0573 96.3606" stroke="white" stroke-width="0.551925" stroke-miterlimit="10"/>
<path opacity="0.1" d="M23.5449 103.144L27.16 97.9834" stroke="white" stroke-width="0.551925" stroke-miterlimit="10"/>
<path opacity="0.1" d="M26.0063 104.833L29.3455 99.4844" stroke="white" stroke-width="0.551925" stroke-miterlimit="10"/>
<path opacity="0.2" d="M28.5513 106.389L31.6089 100.875" stroke="white" stroke-width="0.551925" stroke-miterlimit="10"/>
<path opacity="0.1" d="M31.1729 107.808L33.938 102.145" stroke="white" stroke-width="0.551925" stroke-miterlimit="10"/>
<path opacity="0.1" d="M33.8657 109.093L36.3328 103.287" stroke="white" stroke-width="0.551925" stroke-miterlimit="10"/>
<path opacity="0.1" d="M36.6255 110.23L38.7835 104.308" stroke="white" stroke-width="0.551925" stroke-miterlimit="10"/>
<path opacity="0.1" d="M39.4409 111.224L41.2843 105.197" stroke="white" stroke-width="0.551925" stroke-miterlimit="10"/>
<path opacity="0.1" d="M42.2993 112.068L43.8281 105.953" stroke="white" stroke-width="0.551925" stroke-miterlimit="10"/>
<path opacity="0.1" d="M45.2026 112.763L46.4058 106.576" stroke="white" stroke-width="0.551925" stroke-miterlimit="10"/>
<path opacity="0.1" d="M48.1392 113.305L49.0167 107.062" stroke="white" stroke-width="0.551925" stroke-miterlimit="10"/>
<path opacity="0.1" d="M51.0972 113.691L51.6491 107.41" stroke="white" stroke-width="0.551925" stroke-miterlimit="10"/>
<path opacity="0.1" d="M54.0723 113.923L54.293 107.62" stroke="white" stroke-width="0.551925" stroke-miterlimit="10"/>
<path opacity="0.5" d="M57.0581 113.994L56.9478 107.697" stroke="white" stroke-width="0.551925" stroke-miterlimit="10"/>
<path opacity="0.1" d="M60.0382 113.917L59.5967 107.631" stroke="white" stroke-width="0.551925" stroke-miterlimit="10"/>
<path opacity="0.1" d="M63.0133 113.68L62.2461 107.421" stroke="white" stroke-width="0.551925" stroke-miterlimit="10"/>
<path opacity="0.1" d="M65.9717 113.288L64.8789 107.079" stroke="white" stroke-width="0.551925" stroke-miterlimit="10"/>
<path opacity="0.1" d="M68.9022 112.742L67.4893 106.599" stroke="white" stroke-width="0.551925" stroke-miterlimit="10"/>
<path opacity="0.1" d="M71.8059 112.041L70.0674 105.98" stroke="white" stroke-width="0.551925" stroke-miterlimit="10"/>
<path opacity="0.1" d="M74.664 111.191L72.6108 105.23" stroke="white" stroke-width="0.551925" stroke-miterlimit="10"/>
<path opacity="0.1" d="M77.4789 110.192L75.1167 104.347" stroke="white" stroke-width="0.551925" stroke-miterlimit="10"/>
<path opacity="0.1" d="M80.2332 109.049L77.5674 103.337" stroke="white" stroke-width="0.551925" stroke-miterlimit="10"/>
<path opacity="0.2" d="M82.9271 107.758L79.9688 102.194" stroke="white" stroke-width="0.551925" stroke-miterlimit="10"/>
<path opacity="0.2" d="M85.5482 106.334L82.2974 100.93" stroke="white" stroke-width="0.551925" stroke-miterlimit="10"/>
<path opacity="0.1" d="M88.0872 104.772L84.5659 99.5452" stroke="white" stroke-width="0.551925" stroke-miterlimit="10"/>
<path opacity="0.1" d="M90.5487 103.077L86.7515 98.0439" stroke="white" stroke-width="0.551925" stroke-miterlimit="10"/>
<path opacity="0.1" d="M92.9105 101.261L88.8594 96.4321" stroke="white" stroke-width="0.551925" stroke-miterlimit="10"/>
<path opacity="0.1" d="M95.1794 99.3188L90.8799 94.7102" stroke="white" stroke-width="0.551925" stroke-miterlimit="10"/>
<path opacity="0.1" d="M97.3425 97.2656L92.8057 92.8833" stroke="white" stroke-width="0.551925" stroke-miterlimit="10"/>
<path opacity="0.1" d="M99.3958 95.0966L94.6382 90.9626" stroke="white" stroke-width="0.551925" stroke-miterlimit="10"/>
<path opacity="0.1" d="M101.328 92.8283L96.3604 88.9482" stroke="white" stroke-width="0.551925" stroke-miterlimit="10"/>
<path opacity="0.1" d="M103.143 90.455L97.9824 86.8398" stroke="white" stroke-width="0.551925" stroke-miterlimit="10"/>
<path opacity="0.1" d="M104.833 87.999L99.4844 84.6543" stroke="white" stroke-width="0.551925" stroke-miterlimit="10"/>
<path opacity="0.2" d="M106.389 85.4491L100.875 82.397" stroke="white" stroke-width="0.551925" stroke-miterlimit="10"/>
<path opacity="0.1" d="M107.807 82.8274L102.145 80.0623" stroke="white" stroke-width="0.551925" stroke-miterlimit="10"/>
<path opacity="0.1" d="M109.094 80.134L103.288 77.6724" stroke="white" stroke-width="0.551925" stroke-miterlimit="10"/>
<path opacity="0.1" d="M110.23 77.3744L104.308 75.2219" stroke="white" stroke-width="0.551925" stroke-miterlimit="10"/>
<path opacity="0.1" d="M111.224 74.5595L105.197 72.7161" stroke="white" stroke-width="0.551925" stroke-miterlimit="10"/>
<path opacity="0.1" d="M112.068 71.7005L105.953 70.1716" stroke="white" stroke-width="0.551925" stroke-miterlimit="10"/>
<path opacity="0.1" d="M112.764 68.7974L106.577 67.5942" stroke="white" stroke-width="0.551925" stroke-miterlimit="10"/>
<path opacity="0.1" d="M113.304 65.8612L107.062 64.9836" stroke="white" stroke-width="0.551925" stroke-miterlimit="10"/>
<path opacity="0.1" d="M113.691 62.9028L107.41 62.3564" stroke="white" stroke-width="0.551925" stroke-miterlimit="10"/>
<path opacity="0.1" d="M113.923 59.928L107.62 59.7073" stroke="white" stroke-width="0.551925" stroke-miterlimit="10"/>
<path opacity="0.5" d="M113.995 56.9478L107.697 57.0581" stroke="white" stroke-width="0.551925" stroke-miterlimit="10"/>
<path opacity="0.1" d="M113.917 53.9617L107.63 54.4032" stroke="white" stroke-width="0.551925" stroke-miterlimit="10"/>
<path opacity="0.1" d="M113.68 50.9866L107.421 51.7537" stroke="white" stroke-width="0.551925" stroke-miterlimit="10"/>
<path opacity="0.1" d="M113.288 48.0286L107.079 49.1269" stroke="white" stroke-width="0.551925" stroke-miterlimit="10"/>
<path opacity="0.1" d="M112.742 45.0977L106.599 46.5161" stroke="white" stroke-width="0.551925" stroke-miterlimit="10"/>
<path opacity="0.1" d="M112.041 42.1946L105.98 43.9331" stroke="white" stroke-width="0.551925" stroke-miterlimit="10"/>
<path opacity="0.1" d="M111.191 39.3357L105.23 41.3889" stroke="white" stroke-width="0.551925" stroke-miterlimit="10"/>
<path opacity="0.1" d="M110.192 36.5264L104.347 38.8831" stroke="white" stroke-width="0.551925" stroke-miterlimit="10"/>
<path opacity="0.2" d="M109.049 33.7668L103.337 36.4326" stroke="white" stroke-width="0.551925" stroke-miterlimit="10"/>
<path opacity="0.1" d="M107.758 31.0732L102.194 34.0371" stroke="white" stroke-width="0.551925" stroke-miterlimit="10"/>
<path opacity="0.1" d="M106.334 28.4573L100.93 31.7026" stroke="white" stroke-width="0.551925" stroke-miterlimit="10"/>
<path opacity="0.1" d="M104.772 25.9128L99.5449 29.4341" stroke="white" stroke-width="0.551925" stroke-miterlimit="10"/>
<path opacity="0.1" d="M103.077 23.4568L98.0439 27.2485" stroke="white" stroke-width="0.551925" stroke-miterlimit="10"/>
<path opacity="0.1" d="M101.261 21.0891L96.4321 25.1402" stroke="white" stroke-width="0.551925" stroke-miterlimit="10"/>
<path opacity="0.1" d="M99.3185 18.8208L94.71 23.1203" stroke="white" stroke-width="0.551925" stroke-miterlimit="10"/>
<path opacity="0.1" d="M97.2661 16.657L92.8838 21.1938" stroke="white" stroke-width="0.551925" stroke-miterlimit="10"/>
<path opacity="0.1" d="M95.0968 14.6094L90.9629 19.367" stroke="white" stroke-width="0.551925" stroke-miterlimit="10"/>
<path opacity="0.1" d="M92.8283 12.6721L88.9482 17.6394" stroke="white" stroke-width="0.551925" stroke-miterlimit="10"/>
<path opacity="0.1" d="M90.455 10.8564L86.8398 16.0225" stroke="white" stroke-width="0.551925" stroke-miterlimit="10"/>
<path opacity="0.2" d="M87.999 9.16748L84.6543 14.5156" stroke="white" stroke-width="0.551925" stroke-miterlimit="10"/>
<path opacity="0.1" d="M85.4486 7.61108L82.3965 13.1248" stroke="white" stroke-width="0.551925" stroke-miterlimit="10"/>
<path opacity="0.1" d="M82.8272 6.19263L80.062 11.8554" stroke="white" stroke-width="0.551925" stroke-miterlimit="10"/>
<path opacity="0.1" d="M80.1335 4.91211L77.6719 10.7128" stroke="white" stroke-width="0.551925" stroke-miterlimit="10"/>
<path opacity="0.1" d="M77.3742 3.76953L75.2217 9.69168" stroke="white" stroke-width="0.551925" stroke-miterlimit="10"/>
<path opacity="0.1" d="M74.5597 2.77637L72.7163 8.80338" stroke="white" stroke-width="0.551925" stroke-miterlimit="10"/>
<path opacity="0.1" d="M71.7007 1.93188L70.1719 8.04721" stroke="white" stroke-width="0.551925" stroke-miterlimit="10"/>
<path opacity="0.1" d="M68.7974 1.23633L67.5942 7.4234" stroke="white" stroke-width="0.551925" stroke-miterlimit="10"/>
<path opacity="0.1" d="M65.8614 0.695312L64.9839 6.93758" stroke="white" stroke-width="0.551925" stroke-miterlimit="10"/>
<path opacity="0.1" d="M62.9028 0.309082L62.3564 6.58998" stroke="white" stroke-width="0.551925" stroke-miterlimit="10"/>
<path opacity="0.1" d="M59.9283 0.0827637L59.7075 6.38022" stroke="white" stroke-width="0.551925" stroke-miterlimit="10"/>
<path d="M57.2896 56H60.1309V39.7944H57.2671L53.0332 42.7705V45.4321L57.2222 42.5571H57.2896V56Z" fill="white"/>
<path d="M52.8682 20H54.625V13.0615H54.6592L59.4785 20H61.0508V10.1357H59.3008V17.0469H59.2598L54.4541 10.1357H52.8682V20Z" fill="white"/>
<path d="M57.334 103.171C59.7402 103.171 61.1895 102.002 61.1895 100.163V100.156C61.1895 98.6182 60.2939 97.7842 58.2432 97.3604L57.1768 97.1416C55.9873 96.8955 55.4473 96.4854 55.4473 95.7881V95.7812C55.4473 94.9951 56.165 94.4551 57.3203 94.4482C58.4277 94.4482 59.1865 94.9609 59.3027 95.8223L59.3164 95.9043H61.0049L60.998 95.7881C60.8955 94.0996 59.4873 92.9648 57.334 92.9648C55.208 92.9648 53.6836 94.1406 53.6768 95.877V95.8838C53.6768 97.3535 54.6338 98.2559 56.5752 98.6592L57.6348 98.8779C58.9062 99.1445 59.4189 99.541 59.4189 100.279V100.286C59.4189 101.134 58.6396 101.688 57.3955 101.688C56.1582 101.688 55.29 101.161 55.1602 100.313L55.1465 100.231H53.458L53.4648 100.334C53.5811 102.104 55.0713 103.171 57.334 103.171Z" fill="white"/>
<path d="M45.8276 71H47.1021V66.2246C47.1021 65.1626 47.8345 64.3643 48.8452 64.3643C49.79 64.3643 50.4053 64.9722 50.4053 65.895V71H51.6797V66.1587C51.6797 65.1187 52.3901 64.3643 53.4009 64.3643C54.4043 64.3643 54.9829 64.9868 54.9829 66.0342V71H56.2573V65.7412C56.2573 64.2251 55.2832 63.2363 53.7744 63.2363C52.7051 63.2363 51.8115 63.7856 51.3867 64.7012H51.3574C51.0278 63.771 50.2588 63.2363 49.2188 63.2363C48.2373 63.2363 47.4756 63.7417 47.1313 64.4961H47.1021V63.3828H45.8276V71ZM61.2524 60.4312H60.0366L57.0557 73.5635H58.2715L61.2524 60.4312ZM64.7754 71.1465C66.4746 71.1465 67.7344 70.209 67.7344 68.876V68.8687C67.7344 67.7847 67.1777 67.1768 65.6396 66.8032L64.4312 66.5103C63.5889 66.3052 63.2446 65.9463 63.2446 65.4263V65.4189C63.2446 64.7451 63.8159 64.2983 64.7388 64.2983C65.6836 64.2983 66.2476 64.7891 66.3501 65.5288L66.3574 65.5801H67.5732L67.5659 65.4849C67.4707 64.2104 66.4087 63.2363 64.7388 63.2363C63.0908 63.2363 61.9409 64.1665 61.9409 65.4775V65.4849C61.9409 66.5835 62.6367 67.25 64.0723 67.5942L65.2808 67.8872C66.145 68.0996 66.4307 68.4072 66.4307 68.9565V68.9639C66.4307 69.6523 65.8154 70.0845 64.7827 70.0845C63.7427 70.0845 63.1787 69.6377 63.0249 68.876L63.0103 68.8027H61.7358L61.7432 68.8687C61.897 70.231 62.981 71.1465 64.7754 71.1465Z" fill="white"/>
<path d="M11.9395 62H13.6416L15.6309 54.9248H15.6719L17.6611 62H19.3633L22.0088 52.1357H20.1768L18.4609 59.5801H18.4268L16.4512 52.1357H14.8516L12.876 59.5801H12.8418L11.126 52.1357H9.29395L11.9395 62Z" fill="white"/>
<path d="M97.8682 62H104.253V60.5166H99.6318V57.707H104V56.2783H99.6318V53.6191H104.253V52.1357H97.8682V62Z" fill="white"/>
<path fill-rule="evenodd" clip-rule="evenodd" d="M2.3046 72.0067C2.10569 72.1704 2.1919 72.4921 2.44597 72.5343L13.1976 74.3227C13.3788 74.3529 13.5013 74.1435 13.3864 74.0003L10.8053 70.7842L29.3185 65.8236L28.8009 63.8918L10.5034 68.7946L11.0463 65.267C11.0743 65.0855 10.8634 64.9655 10.7216 65.0821L2.3046 72.0067Z" fill="white"/>
<path fill-rule="evenodd" clip-rule="evenodd" d="M85.4823 49.0683L86 51.0001L105.403 45.8011C106.14 47.6652 108.174 48.7208 110.157 48.1896C112.29 47.6178 113.557 45.4245 112.985 43.2906C112.413 41.1567 110.22 39.8904 108.086 40.4622C106.478 40.8929 105.363 42.2441 105.155 43.7969L85.4823 49.0683ZM109.639 46.2577C108.572 46.5436 107.475 45.9104 107.189 44.8435C106.904 43.7766 107.537 42.6799 108.604 42.394C109.671 42.1081 110.767 42.7413 111.053 43.8082C111.339 44.8752 110.706 45.9718 109.639 46.2577Z" fill="white"/>
<path d="M57.0807 0.645576C57.2778 0.342046 57.7222 0.342046 57.9193 0.645576L60.8955 5.22765C61.1115 5.56028 60.8728 6 60.4761 6H54.5239C54.1272 6 53.8885 5.56028 54.1045 5.22765L57.0807 0.645576Z" fill="#989BA4"/>
</svg>
